<svg xmlns="http://www.w3.org/2000/svg" viewBox="0 0 360 640" width="360" height="640" font-family="'PingFang TC','Noto Sans TC','Microsoft JhengHei',sans-serif">
<rect x="2" y="2" width="356" height="636" rx="44" fill="#1d1d1f"/>
<rect x="12" y="12" width="336" height="616" rx="36" fill="#ffffff"/>
<clipPath id="scr"><rect x="12" y="12" width="336" height="616" rx="36"/></clipPath>
<g clip-path="url(#scr)">
<text x="46" y="40" font-size="15" fill="#222" font-weight="700" text-anchor="start">9:41</text><rect x="128" y="20" width="104" height="28" rx="14" fill="#1d1d1f"/><text x="318" y="40" font-size="13" fill="#222"  text-anchor="end">▮▮ ◔</text>
<rect x="12" y="56" width="336" height="500" fill="#f6f1e7"/>
<text x="28" y="94" font-size="20" fill="#2a2724" font-weight="700" text-anchor="start">教全區行事曆</text>
<rect x="28" y="106" width="304" height="1" fill="#ddd4c3"/>
<rect x="28" y="126" width="304" height="50" rx="10" fill="#fffcf6" stroke="#ddd4c3"/><rect x="40" y="138" width="120" height="10" rx="5" fill="#57514a"/><rect x="40" y="156" width="90" height="8" rx="4" fill="#bdb4a5"/><rect x="262" y="142" width="56" height="20" rx="10" fill="#f4e2da"/><rect x="28" y="188" width="304" height="50" rx="10" fill="#fffcf6" stroke="#ddd4c3"/><rect x="40" y="200" width="160" height="10" rx="5" fill="#57514a"/><rect x="40" y="218" width="90" height="8" rx="4" fill="#bdb4a5"/><rect x="262" y="204" width="56" height="20" rx="10" fill="#f4e2da"/><rect x="28" y="250" width="304" height="50" rx="10" fill="#fffcf6" stroke="#ddd4c3"/><rect x="40" y="262" width="120" height="10" rx="5" fill="#57514a"/><rect x="40" y="280" width="90" height="8" rx="4" fill="#bdb4a5"/><rect x="262" y="266" width="56" height="20" rx="10" fill="#f4e2da"/><rect x="28" y="312" width="304" height="50" rx="10" fill="#fffcf6" stroke="#ddd4c3"/><rect x="40" y="324" width="160" height="10" rx="5" fill="#57514a"/><rect x="40" y="342" width="90" height="8" rx="4" fill="#bdb4a5"/><rect x="262" y="328" width="56" height="20" rx="10" fill="#f4e2da"/>
<rect x="12" y="556" width="336" height="72" fill="#f6f1e7"/>
<circle cx="44" cy="584" r="20" fill="#ffffff" stroke="#d1d1d6"/><path d="M48 575 l-8 9 l8 9" fill="none" stroke="#333" stroke-width="2.6" stroke-linecap="round" stroke-linejoin="round"/>
<rect x="72" y="564" width="216" height="40" rx="20" fill="#ffffff" stroke="#d1d1d6"/><text x="180" y="590" font-size="14" fill="#333"  text-anchor="middle">bailixiao.github.io</text>
<circle cx="316" cy="584" r="20" fill="#ffffff" stroke="#d1d1d6"/><circle cx="308" cy="584" r="2.6" fill="#333"/><circle cx="316" cy="584" r="2.6" fill="#333"/><circle cx="324" cy="584" r="2.6" fill="#333"/>
<circle cx="316" cy="584" r="26" fill="none" stroke="#e0262b" stroke-width="5"/>
<line x1="250" y1="524" x2="316" y2="558" stroke="#e0262b" stroke-width="3"/>
<rect x="181.5" y="494" width="137" height="30" rx="15" fill="#e0262b"/>
<text x="250" y="515" font-size="16" fill="#fff" font-weight="700" text-anchor="middle">點右下角「⋯」</text>
</g>
</svg>