<svg xmlns="http://www.w3.org/2000/svg" viewBox="0 0 360 640" width="360" height="640" font-family="'PingFang TC','Noto Sans TC','Microsoft JhengHei',sans-serif">
<rect x="2" y="2" width="356" height="636" rx="44" fill="#1d1d1f"/>
<rect x="12" y="12" width="336" height="616" rx="36" fill="#ffffff"/>
<clipPath id="scr"><rect x="12" y="12" width="336" height="616" rx="36"/></clipPath>
<g clip-path="url(#scr)">
<text x="46" y="40" font-size="15" fill="#222" font-weight="700" text-anchor="start">9:41</text><rect x="128" y="20" width="104" height="28" rx="14" fill="#1d1d1f"/><text x="318" y="40" font-size="13" fill="#222"  text-anchor="end">▮▮ ◔</text>
<rect x="12" y="52" width="336" height="56" fill="#ffffff"/>
<text x="34" y="88" font-size="20" fill="#333"  text-anchor="start">✕</text><text x="170" y="78" font-size="15" fill="#222" font-weight="700" text-anchor="middle">教全區行事曆</text><text x="170" y="98" font-size="11" fill="#888"  text-anchor="middle">bailixiao.github.io</text>
<g transform="translate(282,82) scale(0.8)" fill="none" stroke="#333" stroke-width="2.4" stroke-linecap="round" stroke-linejoin="round"><path d="M-8 -2 h-3 v15 h22 v-15 h-3"/><path d="M0 -13 v17"/><path d="M-5 -8 l5 -5 l5 5"/></g><circle cx="324" cy="74" r="2.6" fill="#333"/><circle cx="324" cy="82" r="2.6" fill="#333"/><circle cx="324" cy="90" r="2.6" fill="#333"/>
<rect x="12" y="108" width="336" height="520" fill="#f6f1e7"/>
<text x="28" y="146" font-size="20" fill="#2a2724" font-weight="700" text-anchor="start">教全區行事曆</text>
<rect x="28" y="158" width="304" height="1" fill="#ddd4c3"/>
<rect x="28" y="178" width="304" height="50" rx="10" fill="#fffcf6" stroke="#ddd4c3"/><rect x="40" y="190" width="120" height="10" rx="5" fill="#57514a"/><rect x="40" y="208" width="90" height="8" rx="4" fill="#bdb4a5"/><rect x="262" y="194" width="56" height="20" rx="10" fill="#f4e2da"/><rect x="28" y="240" width="304" height="50" rx="10" fill="#fffcf6" stroke="#ddd4c3"/><rect x="40" y="252" width="160" height="10" rx="5" fill="#57514a"/><rect x="40" y="270" width="90" height="8" rx="4" fill="#bdb4a5"/><rect x="262" y="256" width="56" height="20" rx="10" fill="#f4e2da"/><rect x="28" y="302" width="304" height="50" rx="10" fill="#fffcf6" stroke="#ddd4c3"/><rect x="40" y="314" width="120" height="10" rx="5" fill="#57514a"/><rect x="40" y="332" width="90" height="8" rx="4" fill="#bdb4a5"/><rect x="262" y="318" width="56" height="20" rx="10" fill="#f4e2da"/><rect x="28" y="364" width="304" height="50" rx="10" fill="#fffcf6" stroke="#ddd4c3"/><rect x="40" y="376" width="160" height="10" rx="5" fill="#57514a"/><rect x="40" y="394" width="90" height="8" rx="4" fill="#bdb4a5"/><rect x="262" y="380" width="56" height="20" rx="10" fill="#f4e2da"/>
<circle cx="324" cy="82" r="20" fill="none" stroke="#e0262b" stroke-width="5"/>
<line x1="240" y1="170" x2="324" y2="62" stroke="#e0262b" stroke-width="3"/>
<rect x="137.5" y="140" width="205" height="30" rx="15" fill="#e0262b"/>
<text x="240" y="161" font-size="16" fill="#fff" font-weight="700" text-anchor="middle">點右上角「⋮」或「⋯」</text>
</g>
</svg>