<svg xmlns="http://www.w3.org/2000/svg" viewBox="0 0 360 640" width="360" height="640" font-family="'PingFang TC','Noto Sans TC','Microsoft JhengHei',sans-serif">
<rect x="2" y="2" width="356" height="636" rx="44" fill="#1d1d1f"/>
<rect x="12" y="12" width="336" height="616" rx="36" fill="#ffffff"/>
<clipPath id="scr"><rect x="12" y="12" width="336" height="616" rx="36"/></clipPath>
<g clip-path="url(#scr)">
<text x="46" y="40" font-size="15" fill="#222" font-weight="700" text-anchor="start">9:41</text><rect x="128" y="20" width="104" height="28" rx="14" fill="#1d1d1f"/><text x="318" y="40" font-size="13" fill="#222"  text-anchor="end">▮▮ ◔</text>
<rect x="12" y="52" width="336" height="56" fill="#f1f3f4"/>
<rect x="22" y="60" width="316" height="40" rx="20" fill="#fff" stroke="#dadce0"/>
<text x="40" y="85" font-size="14" fill="#333"  text-anchor="start">bailixiao.github.io</text><g transform="translate(312,80) scale(0.85)" fill="none" stroke="#5f6368" stroke-width="2.4" stroke-linecap="round" stroke-linejoin="round"><path d="M-8 -2 h-3 v15 h22 v-15 h-3"/><path d="M0 -13 v17"/><path d="M-5 -8 l5 -5 l5 5"/></g>
<rect x="12" y="108" width="336" height="452" fill="#f6f1e7"/>
<text x="28" y="146" font-size="20" fill="#2a2724" font-weight="700" text-anchor="start">教全區行事曆</text>
<rect x="28" y="158" width="304" height="1" fill="#ddd4c3"/>
<rect x="28" y="178" width="304" height="50" rx="10" fill="#fffcf6" stroke="#ddd4c3"/><rect x="40" y="190" width="120" height="10" rx="5" fill="#57514a"/><rect x="40" y="208" width="90" height="8" rx="4" fill="#bdb4a5"/><rect x="262" y="194" width="56" height="20" rx="10" fill="#f4e2da"/><rect x="28" y="240" width="304" height="50" rx="10" fill="#fffcf6" stroke="#ddd4c3"/><rect x="40" y="252" width="160" height="10" rx="5" fill="#57514a"/><rect x="40" y="270" width="90" height="8" rx="4" fill="#bdb4a5"/><rect x="262" y="256" width="56" height="20" rx="10" fill="#f4e2da"/><rect x="28" y="302" width="304" height="50" rx="10" fill="#fffcf6" stroke="#ddd4c3"/><rect x="40" y="314" width="120" height="10" rx="5" fill="#57514a"/><rect x="40" y="332" width="90" height="8" rx="4" fill="#bdb4a5"/><rect x="262" y="318" width="56" height="20" rx="10" fill="#f4e2da"/><rect x="28" y="364" width="304" height="50" rx="10" fill="#fffcf6" stroke="#ddd4c3"/><rect x="40" y="376" width="160" height="10" rx="5" fill="#57514a"/><rect x="40" y="394" width="90" height="8" rx="4" fill="#bdb4a5"/><rect x="262" y="380" width="56" height="20" rx="10" fill="#f4e2da"/>
<rect x="12" y="560" width="336" height="68" fill="#f1f3f4"/>
<path d="M48 581 l-8 9 l8 9" fill="none" stroke="#5f6368" stroke-width="2.6" stroke-linecap="round" stroke-linejoin="round"/><path d="M100 581 l8 9 l-8 9" fill="none" stroke="#bbb" stroke-width="2.6" stroke-linecap="round" stroke-linejoin="round"/><path d="M172 590 h16 M180 582 v16" stroke="#5f6368" stroke-width="2.4"/><g transform="translate(250,590)" fill="none" stroke="#5f6368" stroke-width="2.2"><rect x="-8" y="-6" width="15" height="15" rx="3"/><path d="M-4 -10 h11 a3 3 0 0 1 3 3 v11"/></g><circle cx="304" cy="590" r="2.6" fill="#5f6368"/><circle cx="312" cy="590" r="2.6" fill="#5f6368"/><circle cx="320" cy="590" r="2.6" fill="#5f6368"/>
<circle cx="312" cy="80" r="22" fill="none" stroke="#e0262b" stroke-width="5"/>
<line x1="252" y1="164" x2="312" y2="58" stroke="#e0262b" stroke-width="3"/>
<rect x="166.5" y="134" width="171" height="30" rx="15" fill="#e0262b"/>
<text x="252" y="155" font-size="16" fill="#fff" font-weight="700" text-anchor="middle">點網址旁的「分享」</text>
<circle cx="312" cy="590" r="22" fill="none" stroke="#e0262b" stroke-width="5"/>
<line x1="220" y1="534" x2="312" y2="568" stroke="#e0262b" stroke-width="3"/>
<rect x="135" y="504" width="170" height="30" rx="15" fill="#e0262b"/>
<circle cx="151" cy="519" r="11" fill="#fff"/><text x="151" y="525" font-size="15" fill="#e0262b" font-weight="700" text-anchor="middle">或</text>
<text x="229" y="525" font-size="16" fill="#fff" font-weight="700" text-anchor="middle">沒有的話點「⋯」</text>
</g>
</svg>