<svg xmlns="http://www.w3.org/2000/svg" viewBox="0 0 360 640" width="360" height="640" font-family="'PingFang TC','Noto Sans TC','Microsoft JhengHei',sans-serif">
<rect x="2" y="2" width="356" height="636" rx="44" fill="#1d1d1f"/>
<rect x="12" y="12" width="336" height="616" rx="36" fill="#ffffff"/>
<clipPath id="scr"><rect x="12" y="12" width="336" height="616" rx="36"/></clipPath>
<g clip-path="url(#scr)">
<text x="46" y="40" font-size="15" fill="#222" font-weight="700" text-anchor="start">9:41</text><rect x="128" y="20" width="104" height="28" rx="14" fill="#1d1d1f"/><text x="318" y="40" font-size="13" fill="#222"  text-anchor="end">▮▮ ◔</text>
<rect x="12" y="56" width="336" height="500" fill="#f6f1e7"/>
<text x="28" y="94" font-size="20" fill="#2a2724" font-weight="700" text-anchor="start">教全區行事曆</text>
<rect x="28" y="106" width="304" height="1" fill="#ddd4c3"/>
<rect x="28" y="126" width="304" height="50" rx="10" fill="#fffcf6" stroke="#ddd4c3"/><rect x="40" y="138" width="120" height="10" rx="5" fill="#57514a"/><rect x="40" y="156" width="90" height="8" rx="4" fill="#bdb4a5"/><rect x="262" y="142" width="56" height="20" rx="10" fill="#f4e2da"/><rect x="28" y="188" width="304" height="50" rx="10" fill="#fffcf6" stroke="#ddd4c3"/><rect x="40" y="200" width="160" height="10" rx="5" fill="#57514a"/><rect x="40" y="218" width="90" height="8" rx="4" fill="#bdb4a5"/><rect x="262" y="204" width="56" height="20" rx="10" fill="#f4e2da"/><rect x="28" y="250" width="304" height="50" rx="10" fill="#fffcf6" stroke="#ddd4c3"/><rect x="40" y="262" width="120" height="10" rx="5" fill="#57514a"/><rect x="40" y="280" width="90" height="8" rx="4" fill="#bdb4a5"/><rect x="262" y="266" width="56" height="20" rx="10" fill="#f4e2da"/><rect x="28" y="312" width="304" height="50" rx="10" fill="#fffcf6" stroke="#ddd4c3"/><rect x="40" y="324" width="160" height="10" rx="5" fill="#57514a"/><rect x="40" y="342" width="90" height="8" rx="4" fill="#bdb4a5"/><rect x="262" y="328" width="56" height="20" rx="10" fill="#f4e2da"/>
<rect x="12" y="12" width="336" height="616" fill="#000" opacity=".25"/>
<rect x="120" y="330" width="214" height="226" rx="22" fill="#fbfbfd"/>
<text x="144" y="368" font-size="15" fill="#222" font-weight="700" text-anchor="start">分享</text><text x="144" y="410" font-size="15" fill="#222"  text-anchor="start">加入書籤</text><rect x="136" y="384" width="182" height="1" fill="#e5e5ea"/><text x="144" y="452" font-size="15" fill="#222"  text-anchor="start">加入喜好項目</text><rect x="136" y="426" width="182" height="1" fill="#e5e5ea"/><text x="144" y="494" font-size="15" fill="#222"  text-anchor="start">加入閱讀列表</text><rect x="136" y="468" width="182" height="1" fill="#e5e5ea"/><text x="144" y="536" font-size="15" fill="#222"  text-anchor="start">在頁面中尋找</text><rect x="136" y="510" width="182" height="1" fill="#e5e5ea"/>
<g transform="translate(304,362) scale(0.8)" fill="none" stroke="#333" stroke-width="2.4" stroke-linecap="round" stroke-linejoin="round"><path d="M-8 -2 h-3 v15 h22 v-15 h-3"/><path d="M0 -13 v17"/><path d="M-5 -8 l5 -5 l5 5"/></g>
<rect x="128" y="340" width="198" height="40" rx="10" fill="none" stroke="#e0262b" stroke-width="4"/>
<circle cx="226" cy="360" r="0.01" fill="none" stroke="#e0262b" stroke-width="5"/>
<line x1="200" y1="314" x2="226" y2="359.99" stroke="#e0262b" stroke-width="3"/>
<rect x="148.5" y="284" width="103" height="30" rx="15" fill="#e0262b"/>
<text x="200" y="305" font-size="16" fill="#fff" font-weight="700" text-anchor="middle">點「分享」</text>
<circle cx="316" cy="584" r="20" fill="#ffffff" stroke="#d1d1d6"/><circle cx="308" cy="584" r="2.6" fill="#333"/><circle cx="316" cy="584" r="2.6" fill="#333"/><circle cx="324" cy="584" r="2.6" fill="#333"/>
</g>
</svg>